<svg xmlns="http://www.w3.org/2000/svg" enable-background="new 0 0 727.5 101.9" viewBox="0 0 727.5 101.9"><g clip-rule="evenodd" fill-rule="evenodd" transform="translate(-20.41 -19.54)"><path d="m224.5 99.8c-19.1 14.1-46.8 21.6-70.7 21.6-31.9.2-62.7-11.6-86.3-32.9-1.8-1.6-.2-3.8 2-2.6 24.6 14.3 55 22.9 86.4 22.9 22.6-.1 45-4.7 65.9-13.5 3.2-1.3 5.9 2.2 2.7 4.5z" fill="#f90"></path><path d="m232.5 90.7c-2.5-3.1-16.2-1.5-22.3-.7-1.9.2-2.2-1.4-.5-2.6 11-7.7 28.9-5.5 31-2.9s-.6 20.6-10.8 29.2c-1.6 1.3-3.1.6-2.4-1.1 2.2-5.8 7.4-18.7 5-21.9z" fill="#f90"></path><path d="m210.6 33.1v-7.5c0-1 .8-1.9 1.8-1.9h.1 33.5c1 0 1.9.8 1.9 1.8v.1 6.4c0 1.1-.9 2.5-2.5 4.7l-17.4 24.8c6.4-.2 13.2.8 19.1 4.1 1.1.6 1.7 1.7 1.8 2.9v8c0 1.1-1.2 2.4-2.5 1.7-11.1-5.7-24.3-5.7-35.4.1-1.2.6-2.4-.6-2.4-1.7v-7.6c-.1-1.8.3-3.6 1.2-5.1l20.2-28.9h-17.5c-1 0-1.9-.8-1.9-1.9z"></path><path d="m88.5 79.8h-10.2c-1-.1-1.7-.8-1.8-1.8v-52.2c0-1.1.9-1.9 2-1.9h9.5c1 0 1.8.8 1.8 1.8v6.8h.2c2.5-6.6 7.1-9.7 13.4-9.7s10.4 3.1 13.2 9.7c2.9-7.8 11.5-11.7 19.3-8.8 2.6 1 4.9 2.6 6.6 4.8 3.2 4.4 2.6 10.8 2.6 16.4v33c0 1.1-.9 1.9-2 1.9h-10.2c-1 0-1.8-.8-1.9-1.9v-27.7c0-2.2.2-7.7-.3-9.8-.8-3.5-3-4.5-6-4.5-2.7.1-5.1 1.8-6.1 4.3-1 2.6-1 7-1 10v27.7c0 1.1-.9 1.9-2 1.9h-10c-1 0-1.8-.9-1.8-1.9v-27.7c0-5.8.9-14.4-6.3-14.4s-7 8.4-7 14.4v27.7c0 1-.9 1.9-2 1.9z"></path><path d="m276.7 22.8c15.1 0 23.3 13 23.3 29.5 0 15.9-9 28.6-23.3 28.6-14.8 0-22.9-13-22.9-29.2s8.1-28.9 22.9-28.9zm.1 10.7c-7.5 0-8 10.2-8 16.6s-.1 20 7.9 20 8.3-11 8.3-17.7c0-4.4-.2-9.7-1.5-13.9-1.2-3.6-3.5-5-6.7-5z"></path><path d="m319.6 79.8h-10.1c-1 0-1.8-.9-1.8-1.9v-52.3c.1-1 1-1.7 2-1.7h9.4c.9 0 1.6.6 1.8 1.5v8h.2c2.9-7.1 6.9-10.6 13.9-10.6 4.6 0 9 1.6 11.9 6.2 2.7 4.2 2.7 11.2 2.7 16.3v32.9c-.1 1-1 1.7-2 1.7h-10.2c-.9 0-1.7-.7-1.8-1.7v-28.5c0-5.7.7-14.1-6.4-14.1-2.6.1-4.9 1.8-5.9 4.2-1.4 3.2-1.6 6.4-1.6 9.9v28.1c-.2 1.1-1.1 2-2.1 2z"></path><path d="m183.9 54.8c0 4 .1 7.3-1.9 10.8-1.6 2.9-4.2 4.6-7.1 4.6-3.9 0-6.2-3-6.2-7.4 0-8.7 7.8-10.2 15.1-10.2v2.2zm10.3 24.8c-.7.6-1.6.7-2.4.2-3.4-2.8-4-4.1-5.8-6.8-5.6 5.7-9.5 7.4-16.8 7.4-8.6 0-15.2-5.3-15.2-15.9-.2-7.3 4.1-13.9 10.9-16.6 5.5-2.4 13.2-2.9 19.1-3.5v-1.3c0-2.4.2-5.3-1.2-7.4-1.4-1.8-3.5-2.7-5.7-2.6-3.9 0-7.3 2-8.2 6.1-.1.9-.8 1.7-1.8 1.9l-9.9-1.1c-1-.1-1.7-1-1.5-2v-.1c2.3-12 13.1-15.6 22.8-15.6 4.9 0 11.4 1.3 15.3 5.1 5 4.6 4.5 10.8 4.5 17.5v15.9c0 4.8 2 6.9 3.8 9.4.6.9.8 2 0 2.7-2.2 1.7-5.9 5-7.9 6.7z"></path><path d="m50.4 54.8c0 4 .1 7.3-1.9 10.8-1.6 2.9-4.2 4.6-7 4.6-3.9 0-6.2-3-6.2-7.4 0-8.7 7.8-10.2 15.1-10.2zm10.3 24.8c-.7.6-1.6.7-2.4.2-3.4-2.8-4-4.1-5.8-6.8-5.6 5.7-9.5 7.4-16.8 7.4-8.6 0-15.2-5.3-15.2-15.9-.2-7.3 4.1-13.9 10.9-16.6 5.5-2.4 13.2-2.9 19.1-3.5v-1.3c0-2.4.2-5.3-1.2-7.4-1.4-1.8-3.5-2.7-5.7-2.6-3.9 0-7.3 2-8.2 6.1-.1.9-.8 1.7-1.8 1.9l-10-1.1c-1-.1-1.7-1-1.5-2v-.1c2.3-12 13.1-15.6 22.8-15.6 5 0 11.4 1.3 15.3 5.1 5 4.6 4.5 10.8 4.5 17.5v15.9c0 4.8 2 6.9 3.8 9.4.7.9.8 2 0 2.7-2 1.7-5.7 5-7.8 6.7z"></path><path d="m728.1 53.6 19-33.6h-323.3c-6 0-10.9 4.9-10.9 10.9v45.4c0 6 4.9 10.9 10.9 10.9h323.2z" fill="#fbbd00" stroke="#ebaf00"></path></g><g enable-background="new" fill="#ebaf00"><path d="m421.7 41.6h-3.9v-3.5h4.4l1.2-7.8h-4.3v-3.5h4.9l1.2-7.7h3.9l-1.2 7.7h6.1l1.2-7.7h3.9l-1.2 7.7h3.9v3.5h-4.4l-1.2 7.8h4.3v3.5h-4.9l-1.3 7.8h-3.9l1.3-7.8h-6.1l-1.3 7.8h-3.9zm4.4-3.5h6.1l1.2-7.8h-6.1z"></path><path d="m455 49.4v-25.1l-8.2 3.1v-4.2l8.7-4h4.7v30.3h-5.2z"></path><path d="m483.2 49.4v-30.3h10.4c2.9 0 5.2.7 7 2.2s2.6 3.4 2.6 5.8c0 1.5-.3 2.8-1 3.8-.7 1.1-1.7 1.9-3 2.5 1.9.6 3.3 1.5 4.3 2.7 1 1.3 1.5 2.8 1.5 4.7 0 2.6-.9 4.7-2.8 6.2s-4.3 2.3-7.5 2.3h-11.5zm5.3-26.3v8.9h4.4c3.2 0 4.7-1.5 4.7-4.5 0-2.9-1.5-4.4-4.5-4.4zm0 12.8v9.5h5.9c3.3 0 4.9-1.6 4.9-4.7 0-3.2-1.7-4.8-5.1-4.8z"></path><path d="m513.9 39.5c.1 2.2.7 3.8 1.8 4.9 1.1 1 2.8 1.6 5.1 1.6 2.1 0 4.3-.4 6.8-1.2v3.6c-1 .5-2.2.9-3.5 1.2-1.4.3-2.8.5-4.2.5-3.7 0-6.5-1-8.3-3-1.9-2-2.8-4.9-2.8-8.7s.9-6.7 2.8-8.8c1.8-2.1 4.4-3.1 7.8-3.1 2.9 0 5 .8 6.6 2.3 1.5 1.6 2.3 3.8 2.3 6.6 0 1.5-.1 2.9-.4 4.1zm5.3-9.3c-1.5 0-2.7.5-3.6 1.6s-1.5 2.5-1.6 4.2h9.6v-.3c0-1.8-.4-3.1-1.1-4.1s-1.9-1.4-3.3-1.4z"></path><path d="m543.2 43.4c0-.6-.2-1.2-.6-1.6s-1.2-.8-2.3-1.2l-3.6-1.4c-3.3-1.3-4.9-3.3-4.9-6.1 0-2 .8-3.7 2.3-4.8 1.5-1.2 3.5-1.8 6.1-1.8 2.4 0 4.6.5 6.6 1.4v3.6c-2.3-.7-4.4-1.1-6.3-1.1-1.3 0-2.3.2-3 .6-.6.4-.9 1-.9 1.9 0 .6.2 1.2.7 1.6s1.3.8 2.4 1.3l3.3 1.2c1.8.7 3 1.5 3.8 2.4s1.2 2.1 1.2 3.5c0 2.2-.8 3.9-2.4 5.2s-3.8 1.9-6.6 1.9c-1.4 0-2.7-.1-4-.4s-2.5-.7-3.5-1.2v-3.6c2.8.9 5.3 1.4 7.5 1.4 1.5 0 2.5-.2 3.2-.7s1-1.2 1-2.1z"></path><path d="m565.1 48.9c-1.5.6-3.1.8-4.9.8-2.3 0-4-.5-5.1-1.6s-1.7-2.7-1.7-4.9v-12.1h-3.8v-3.2l3.9-.6.8-6.3h4.2v6.1h6.3v3.9h-6.3v11.8c0 1 .2 1.7.7 2.1s1.3.6 2.4.6c1.2 0 2.3-.1 3.4-.3v3.7z"></path><path d="m586.8 35.4c-2.4-.9-4.2-2-5.3-3.3s-1.6-2.9-1.6-4.9c0-2.7 1-4.9 2.9-6.4 1.9-1.6 4.5-2.4 7.7-2.4 2.7 0 5.4.5 8.2 1.6v4.2c-2.8-.9-5.3-1.3-7.6-1.3-3.8 0-5.7 1.3-5.7 3.9 0 1 .3 1.8 1 2.4s1.9 1.3 3.7 1.9l3.7 1.4c2.4.9 4.2 2 5.2 3.3s1.6 2.9 1.6 4.9c0 2.9-1 5.3-3.1 6.9-2.1 1.7-4.9 2.5-8.5 2.5-1.5 0-3.1-.2-4.6-.5s-2.9-.7-4.1-1.3v-4.2c1.4.5 2.9.8 4.4 1.1s2.9.4 4.2.4c2 0 3.6-.4 4.7-1.1s1.6-1.8 1.6-3.2c0-1-.3-1.8-1-2.4s-1.8-1.3-3.5-1.9z"></path><path d="m610 39.5c.1 2.2.7 3.8 1.8 4.9 1.1 1 2.8 1.6 5.1 1.6 2.1 0 4.3-.4 6.8-1.2v3.6c-1 .5-2.2.9-3.5 1.2-1.4.3-2.8.5-4.2.5-3.7 0-6.5-1-8.3-3s-2.8-4.9-2.8-8.7.9-6.7 2.8-8.8 4.4-3.1 7.8-3.1c2.9 0 5 .8 6.6 2.3 1.5 1.6 2.3 3.8 2.3 6.6 0 1.5-.1 2.9-.4 4.1zm5.3-9.3c-1.5 0-2.7.5-3.6 1.6-.9 1-1.5 2.5-1.6 4.2h9.6v-.3c0-1.8-.4-3.1-1.1-4.1-.9-.9-1.9-1.4-3.3-1.4z"></path><path d="m637.9 49c-1.1.4-2.2.6-3.5.6-1.7 0-3-.5-3.9-1.5s-1.3-2.4-1.3-4.3v-26.8h5.2v26.5c0 .7.1 1.3.4 1.6s.7.5 1.4.5c.5 0 1.1 0 1.7-.1z"></path><path d="m651 49c-1.1.4-2.2.6-3.5.6-1.7 0-3-.5-3.9-1.5s-1.3-2.4-1.3-4.3v-26.8h5.2v26.5c0 .7.1 1.3.4 1.6s.7.5 1.4.5c.5 0 1.1 0 1.7-.1z"></path><path d="m659.6 39.5c.1 2.2.7 3.8 1.8 4.9 1.1 1 2.8 1.6 5.1 1.6 2.1 0 4.3-.4 6.8-1.2v3.6c-1 .5-2.2.9-3.5 1.2-1.4.3-2.8.5-4.2.5-3.7 0-6.5-1-8.3-3s-2.8-4.9-2.8-8.7.9-6.7 2.8-8.8 4.4-3.1 7.8-3.1c2.9 0 5 .8 6.6 2.3 1.5 1.6 2.3 3.8 2.3 6.6 0 1.5-.1 2.9-.4 4.1zm5.3-9.3c-1.5 0-2.7.5-3.6 1.6-.9 1-1.5 2.5-1.6 4.2h9.6v-.3c0-1.8-.4-3.1-1.1-4.1-.8-.9-1.9-1.4-3.3-1.4z"></path><path d="m678.8 49.4v-22.3h4.3l.7 3.3c1.2-1.3 2.3-2.2 3.3-2.7s2.1-.8 3.3-.8c.6 0 1.2 0 1.8.1v4.7c-.8-.1-1.6-.2-2.5-.2-2.2 0-4.1.6-5.7 1.7v16.1h-5.2z"></path></g><g enable-background="new" fill="#fff"><path d="m420.3 40.3h-4.1v-3.1h4.6l1.3-8.4h-4.6v-3.1h5.1l1.3-8h3.4l-1.3 8h6.8l1.3-8h3.4l-1.3 8h4.1v3.1h-4.6l-1.3 8.4h4.6v3.1h-5.1l-1.3 8.2h-3.4l1.3-8.2h-6.8l-1.3 8.2h-3.4zm3.9-3.1h6.8l1.3-8.4h-6.8z"></path><path d="m454.4 48.5v-26.4l-8.6 3.3v-3.6l8.9-4.2h4.1v30.8h-4.4z"></path><path d="m482.6 48.5v-30.8h10.2c2.9 0 5.2.7 6.9 2.2s2.6 3.4 2.6 5.9c0 1.5-.4 2.9-1.1 4s-1.7 2-3.1 2.6c1.9.6 3.3 1.5 4.4 2.8 1 1.3 1.5 2.9 1.5 4.8 0 2.6-.9 4.7-2.8 6.2-1.8 1.6-4.3 2.3-7.4 2.3zm4.4-27.3v9.9h5.4c3.7 0 5.5-1.6 5.5-4.9 0-1.6-.5-2.9-1.4-3.7s-2.2-1.3-4-1.3zm0 13.3v10.5h6.9c3.8 0 5.6-1.8 5.6-5.3 0-1.7-.5-3.1-1.4-4-1-.9-2.4-1.3-4.3-1.3h-6.8z"></path><path d="m512.5 38.2c.1 2.5.7 4.4 1.9 5.6s3.1 1.8 5.6 1.8c2.3 0 4.7-.5 7.2-1.4v3.2c-2.1 1.2-4.7 1.7-7.8 1.7-3.6 0-6.4-1-8.3-3s-2.8-5-2.8-8.9c0-3.8.9-6.7 2.8-8.8s4.5-3.1 7.8-3.1c2.8 0 5 .8 6.5 2.4s2.3 3.8 2.3 6.7c0 1.4-.1 2.7-.4 3.8zm6.2-9.6c-1.9 0-3.3.6-4.4 1.7s-1.6 2.8-1.8 5h11.1c0-.2 0-.6 0-1.2 0-1.8-.4-3.2-1.3-4.1-.8-.9-2-1.4-3.6-1.4z"></path><path d="m543.5 42.5c0-.7-.2-1.3-.7-1.7s-1.3-.9-2.5-1.3l-3.8-1.4c-3.3-1.2-4.9-3.3-4.9-6.2 0-1.9.7-3.5 2.2-4.7s3.5-1.8 5.9-1.8c2.3 0 4.5.5 6.6 1.4v3.1c-2.3-.7-4.4-1.1-6.4-1.1-2.8 0-4.3 1-4.3 2.9 0 .8.2 1.4.7 1.8s1.4.9 2.8 1.5l3.5 1.3c1.7.7 3 1.5 3.8 2.4s1.2 2.1 1.2 3.6c0 2.1-.8 3.8-2.4 5s-3.7 1.9-6.3 1.9c-2.9 0-5.5-.6-7.6-1.7v-3.1c2.8.9 5.4 1.4 7.7 1.4 1.5 0 2.6-.3 3.3-.8.8-.7 1.2-1.5 1.2-2.5z"></path><path d="m564.8 48c-1.5.6-3.1.8-4.9.8-4.2 0-6.3-2.1-6.3-6.3v-13.1h-4.1v-2.8l4.2-.5.7-6.4h3.6v6.3h6.7v3.5h-6.7v12.8c0 1.1.2 1.9.7 2.3s1.3.7 2.5.7 2.4-.1 3.6-.4z"></path><path d="m587 33.9c-2.4-.9-4.2-2-5.3-3.3s-1.6-2.9-1.6-4.9c0-1.7.4-3.1 1.2-4.4s2-2.3 3.6-3 3.4-1.1 5.5-1.1c2.7 0 5.4.5 8.2 1.6v3.6c-3-.9-5.6-1.4-7.9-1.4-1.9 0-3.4.4-4.5 1.2s-1.6 1.9-1.6 3.4c0 1.2.4 2.1 1.1 2.8s2 1.4 4 2.1l4 1.5c2.4.9 4.1 2 5.2 3.2 1 1.3 1.6 2.9 1.6 4.9 0 2.8-1 5.1-3 6.8s-4.8 2.5-8.2 2.5-6.4-.6-8.9-1.8v-3.6c3.1 1 6 1.6 8.8 1.6 2.1 0 3.8-.5 5-1.4s1.8-2.2 1.8-3.7c0-1.1-.3-2-1-2.7s-1.9-1.4-3.5-2.1z"></path><path d="m609.2 38.2c.1 2.5.7 4.4 1.9 5.6s3.1 1.8 5.6 1.8c2.3 0 4.7-.5 7.2-1.4v3.2c-2.1 1.2-4.7 1.7-7.8 1.7-3.6 0-6.4-1-8.3-3s-2.8-5-2.8-8.9c0-3.8.9-6.7 2.8-8.8s4.5-3.1 7.8-3.1c2.8 0 5 .8 6.5 2.4s2.3 3.8 2.3 6.7c0 1.4-.1 2.7-.4 3.8zm6.1-9.6c-1.9 0-3.3.6-4.4 1.7-1 1.1-1.6 2.8-1.8 5h11.1c0-.2 0-.6 0-1.2 0-1.8-.4-3.2-1.3-4.1-.7-.9-2-1.4-3.6-1.4z"></path><path d="m637.6 48.2c-1 .4-2 .5-3.2.5-1.6 0-2.8-.5-3.6-1.4s-1.2-2.2-1.2-3.9v-27.8h4.4v27.6c0 .7.1 1.2.4 1.5s.7.5 1.4.5c.6 0 1.2 0 1.8-.1z"></path><path d="m650.2 48.2c-1 .4-2 .5-3.2.5-1.6 0-2.8-.5-3.6-1.4s-1.2-2.2-1.2-3.9v-27.8h4.4v27.6c0 .7.1 1.2.4 1.5s.7.5 1.4.5c.6 0 1.2 0 1.8-.1z"></path><path d="m658 38.2c.1 2.5.7 4.4 1.9 5.6s3.1 1.8 5.6 1.8c2.3 0 4.7-.5 7.2-1.4v3.2c-2.1 1.2-4.7 1.7-7.8 1.7-3.6 0-6.4-1-8.3-3s-2.8-5-2.8-8.9c0-3.8.9-6.7 2.8-8.8s4.5-3.1 7.8-3.1c2.8 0 5 .8 6.5 2.4s2.3 3.8 2.3 6.7c0 1.4-.1 2.7-.4 3.8zm6.1-9.6c-1.9 0-3.3.6-4.4 1.7-1 1.1-1.6 2.8-1.8 5h11.1c0-.2 0-.6 0-1.2 0-1.8-.4-3.2-1.3-4.1-.7-.9-2-1.4-3.6-1.4z"></path><path d="m678.4 48.5v-22.5h3.7l.5 3.3c.8-.9 1.6-1.6 2.3-2.1s1.4-.9 2.2-1.1c.7-.2 1.5-.4 2.4-.4.6 0 1.2 0 1.8.1v4c-.9-.1-1.7-.2-2.4-.2-2.4 0-4.4.7-6.1 2.1v16.6h-4.4z"></path></g></svg>