<svg id="Layer_1" data-name="Layer 1" xmlns="http://www.w3.org/2000/svg" viewBox="0 0 1795.5 176.38"><defs><style>.cls-1,.cls-2{fill:#7a7a7a;}.cls-2{fill-rule:evenodd;}</style></defs><path class="cls-1" d="M108.48,53.17V48.91c0-3.63.1-7.26.11-10.9,0-5.72.09-11.44.06-17.16,0-3.66-.11-7.31-.27-11a9.73,9.73,0,0,0-.75-3c-.58-1.5-1.91-2-3.37-2.15-.91-.11-1.24-.6-.94-1.46a.63.63,0,0,1,.43-.33q7.73-1.4,15.46-2.82h.17V17.77l.68-.32c4.28-2,8.67-2.62,13.12-.7a14.39,14.39,0,0,1,8.11,9.44A24.23,24.23,0,0,1,139.38,46c-2.66,4.71-6.9,7.35-12.13,8.44a33.84,33.84,0,0,1-11.79.06c-2.11-.3-4.2-.73-6.3-1.11C108.92,53.3,108.68,53.22,108.48,53.17Zm10.83-14.66h0v6.43c0,2.14.1,4.08.17,6.12,0,.38,0,.84.53.93,2.52.37,4.86.09,6.6-2a15.45,15.45,0,0,0,1.77-2.62A28,28,0,0,0,131.06,35a23.55,23.55,0,0,0-1.8-10.32,8.87,8.87,0,0,0-3.11-3.92c-2-1.33-4.17-1.15-6.37-.41-.39.14-.5.29-.5.67V38.51Z" transform="translate(0.02 0)"/><path class="cls-1" d="M19.48,4.9c-.15,7.13-.3,14.18-.45,21.29,2.29-.1,4.45-.1,6.54-.29a4.46,4.46,0,0,0,3.74-2.6c.69-1.43,1.17-3,1.79-4.58H33V36.5H31c-.36-1.17-.63-2.32-1.05-3.41-1-2.45-2.64-3.88-5.43-3.84-1.75,0-3.51-.15-5.37-.24v2.45c.11,3.83.15,7.67.38,11.49a25.56,25.56,0,0,0,.86,5.14,4.28,4.28,0,0,0,4.07,3.3c.94.09,1.87.31,2.77.46.2,2.07.2,2.07-1.73,2.07H0V51.86c.93-.19,1.89-.44,2.87-.58A4,4,0,0,0,6.24,48.5a17.57,17.57,0,0,0,.93-4.18c.56-8.2.57-16.42.45-24.64,0-3-.2-6-.45-9.06a16.63,16.63,0,0,0-.86-3.88A4.56,4.56,0,0,0,2,3.56L0,3.35V1.09h42.5c.09,4.88.17,9.79.25,14.79l-2,.64c-.53.16-.57-.27-.67-.59a24.56,24.56,0,0,0-3.2-6.62,10.11,10.11,0,0,0-8.62-4.45C25.39,4.91,22.54,4.9,19.48,4.9Z" transform="translate(0.02 0)"/><path class="cls-1" d="M37.38,34.67A20.4,20.4,0,0,1,42.65,20.6,17,17,0,0,1,53,15.36a20.79,20.79,0,0,1,10.4,1,15.49,15.49,0,0,1,9.55,10,24.32,24.32,0,0,1-.1,17.14c-2.58,6.59-7.5,10.36-14.57,11.23a20.58,20.58,0,0,1-9.9-1c-5.3-2-8.44-6-10-11.3A27.89,27.89,0,0,1,37.38,34.67ZM63,36.61h.21c-.28-3-.44-6.12-.84-9.16a16.1,16.1,0,0,0-2.69-7.36c-2.12-3-6-3.17-8-.28a12.11,12.11,0,0,0-1.47,3,30.18,30.18,0,0,0-1.29,8.28,49.61,49.61,0,0,0,.66,12.41,16.43,16.43,0,0,0,2.65,6.76,4.68,4.68,0,0,0,7.81,0,13.48,13.48,0,0,0,1.75-3.72A38.64,38.64,0,0,0,63,36.61Z" transform="translate(0.02 0)"/><path class="cls-1" d="M179.19,33.32H157.53c-.65,0-.87.12-.84.84a23.47,23.47,0,0,0,1,6.61c1.9,5.72,6.3,8.75,12.31,8.57a12.29,12.29,0,0,0,7-2.29c.28-.2.6-.66,1-.09s.85.82.25,1.54a17.23,17.23,0,0,1-10.92,6.16,18.66,18.66,0,0,1-13-2.34,17.22,17.22,0,0,1-8-10.93c-1.62-6.43-1-12.62,2.61-18.29a16.44,16.44,0,0,1,12.21-7.74,18.59,18.59,0,0,1,7,.25A12.83,12.83,0,0,1,176.58,22,23,23,0,0,1,179.19,33.32Zm-22.48-2.84,11.39-.28c-.15-2-.22-3.8-.46-5.61a12.15,12.15,0,0,0-1.71-5.26,3.21,3.21,0,0,0-4.39-1.21,2.77,2.77,0,0,0-.45.31,4.74,4.74,0,0,0-1,1c-2.46,3.23-3,7-3.35,11.06Z" transform="translate(0.02 0)"/><path class="cls-1" d="M208.12,22.09v4.39c0,1-.9.66-1.37.94a1.44,1.44,0,0,1-.57-.57,17.22,17.22,0,0,0-3.82-6.76A7.08,7.08,0,0,0,196.58,18c-2.84.27-4.66,2.61-4.59,5.59a5.4,5.4,0,0,0,3.3,4.79c2.36,1.26,4.84,2.33,7.28,3.46a14.09,14.09,0,0,1,5.91,4.34,9.13,9.13,0,0,1,1.62,5,12.45,12.45,0,0,1-1.78,7.51,13.15,13.15,0,0,1-8.84,5.71,27.69,27.69,0,0,1-10.58,0c-2.22-.37-4.39-1-6.58-1.56-.47-.12-.6-.4-.61-.88-.05-3.33-.13-6.67-.22-10,0-.55.34-.55.65-.64,1.34-.4,1.06-.36,1.48.7a19.93,19.93,0,0,0,3.69,6.45,8.38,8.38,0,0,0,8,2.69,5.46,5.46,0,0,0,4.39-4.37A5.14,5.14,0,0,0,197,40.93a41.73,41.73,0,0,0-5.12-2.38,23,23,0,0,1-6.19-3.24c-2.87-2.39-3.76-5.54-3.47-9.13.46-5.6,5-9.63,10.49-10.65a28.17,28.17,0,0,1,14.13,1.18,1.24,1.24,0,0,1,1,1.44c-.08,1.31,0,2.62,0,3.93Z" transform="translate(0.02 0)"/><path class="cls-1" d="M74.59,18.4l16.1-3.26v8.22c.46-.8.88-1.61,1.37-2.38a12.45,12.45,0,0,1,6.3-5.41,8.85,8.85,0,0,1,6.69.16c.56.24.73.51.49,1.14-1.22,3.16-2.39,6.33-3.62,9.61l-.81-.44a9.91,9.91,0,0,0-9-.69,2.24,2.24,0,0,0-1.63,2.34c.06,4.21-.1,8.42,0,12.63A68.35,68.35,0,0,0,91,48.15c.34,2.62,1.38,3.4,4,3.54.64,0,1.29.1,2,.16v2.08H75.77c-1.49,0-1.2,0-1.23-1.2v-.82c.42-.08.8-.17,1.19-.22,2.4-.3,3.55-1.34,3.76-3.75s.29-5.13.35-7.69c.07-3.2.11-6.41.06-9.6,0-2.29-.19-4.58-.4-6.86s-1.22-3.28-3.52-3.6C74.48,20,74.48,20,74.59,18.4Z" transform="translate(0.02 0)"/><path class="cls-1" d="M328,47.38h10.33l5.53-31.7H333.54L331.48,27h-9l2-11.35H314.25l-5.53,31.7h10.33l2.08-11.86h9Zm21.72-31.74-3.15,17.64a20.7,20.7,0,0,0-.39,4c0,9.35,8.17,10.76,13.08,10.76C369.55,48,374,44.63,375.6,35.4l3.45-19.75H368.72l-2.94,16.53c-.94,5.18-1.61,7.89-5.46,7.89-2.51,0-3.73-1.33-3.73-4.08a21.52,21.52,0,0,1,.47-4l3-16.41H349.72Zm83.92,31.74H444l1.45-8.17h4.87c9,0,14-4.87,14-13.75,0-6.24-4.32-9.82-11.9-9.82h-13.2Zm16.1-16h-3l1.38-7.46h2.79c2.27,0,3.49,1.14,3.49,3.22,0,2.64-1.76,4.25-4.66,4.25ZM484.34,15c-11.24,0-17.95,7.26-17.95,19.48,0,8.48,5.34,13.58,14.29,13.58,11.23,0,17.95-7.26,17.95-19.48C498.63,20,493.33,15,484.34,15Zm-3,24.86c-2.67,0-4.24-1.93-4.24-5.15a17.81,17.81,0,0,1,.35-3.49c.79-4.17,2.12-8,6.33-8,2.67,0,4.24,1.93,4.24,5.15a17.09,17.09,0,0,1-.36,3.49c-.81,4.16-2.18,8-6.35,8Zm53.25,7.54h10.33L549,24.16h7.78l1.49-8.49H531.81l-1.49,8.49h8.25Zm-17.11-20c-3.26-1-4.59-1.46-4.59-3,0-1,.66-2.24,2.63-2.24a3.29,3.29,0,0,1,3.14,2.05l9.11-2.48c-1.06-4.48-4.91-6.75-11.55-6.75-12.48,0-13.47,8.36-13.47,10.91,0,5.19,2.75,8.37,8.72,10,1.57.43,3.38.9,3.38,2.63,0,1.37-1,2.24-2.79,2.24a4.17,4.17,0,0,1-3.93-2.59l-9,2.43c1,4.71,5.42,7.38,12.37,7.38,5.3,0,14.18-1.41,14.18-11,0-4.79-2.67-7.93-8.21-9.62Z" transform="translate(0.02 0)"/><path class="cls-1" d="M302.94,47.38l5.54-31.7h-17v31.7Zm259.74-31.7-5.54,31.7h17.09V15.68Z" transform="translate(0.02 0)"/><path class="cls-1" d="M391.38,38h8.68l1.42-7.94h-8.67l1-5.89h12.13l1.49-8.53H384.94L379.4,47.41h10.33Zm27.06,0h8.72l1.41-8h-8.68l1-5.89H433l1.45-8.5H412l-5.56,31.74h10.33Z" transform="translate(0.02 0)"/><path class="cls-1" d="M999.48,24.75l-.16-.33A7.11,7.11,0,0,0,996.66,21h0l-5.83,3.74.25.33s.67-.41,1-.58a6.74,6.74,0,0,1,1.58,2.91V41.73l-1.61,1.36L996.54,46l4.5-2.83-1.56-1.36V26l1.5-1,2.17,2.33V42.09c0,1.75,1.41,3,2.49,3.83l5.41-3.5-.25-.33-1,.66A5.92,5.92,0,0,1,1009,42V23l-3.33-2.16Z" transform="translate(0.02 0)"/><path class="cls-1" d="M772.48,24l.25.42s.92-.59,1.09-.67c0,0,1.74,1.58,1.74,3.08V44.72a5.47,5.47,0,0,0-4.08,5.74,4.56,4.56,0,0,0,4.16,4.16,24.94,24.94,0,0,0,5.66-.41,26.35,26.35,0,0,1,3.32-.25A4.34,4.34,0,0,1,788,55.21l.41.41h0a4.16,4.16,0,0,0,1-2.53,3.8,3.8,0,0,0-2.08-3.67,7.55,7.55,0,0,0-3.66-.66,7.85,7.85,0,0,0-1.08.08l-2.5.25a28.1,28.1,0,0,0-3.41.42,7.85,7.85,0,0,1-1.08.08,2,2,0,0,1-1.5-.58,1.4,1.4,0,0,1-.5-1.08c.17-1.59,2.08-2.17,2.75-2.25h.66a34.63,34.63,0,0,0,6.58.66,6.49,6.49,0,0,0,2.74-.58,7.51,7.51,0,0,0,2.5-1.5,5.44,5.44,0,0,0,1.58-1.79,5.07,5.07,0,0,0,.66-2.49V22.67c-.16-.17-2.91-1.83-2.91-1.83l-4.49,2.91,1.53,1.34V42.22c0,1.5-1.33,2.58-3.08,2.58a3.82,3.82,0,0,1-.75-.08V23.34l-3.91-2.5Z" transform="translate(0.02 0)"/><path class="cls-1" d="M820.13,24.75l-.16-.33A7.11,7.11,0,0,0,817.31,21h0l-5.83,3.74.25.42s.67-.42,1-.59a6.83,6.83,0,0,1,1.58,2.92V41.81l-1.58,1.28L817.22,46l4.5-2.83-1.59-1.33V26l1.5-1s2.17,2.33,2.17,2.41V42.14c0,1.75,1.41,3,2.49,3.83l5.41-3.5-.25-.33-1,.67a7.39,7.39,0,0,1-.83-.75V23l-3.33-2.16Z" transform="translate(0.02 0)"/><path class="cls-1" d="M719.78,24.42l3.7,6.15L719.78,33Zm-6.07,2.41V42.47c1.75,1.25,5.74,3.5,5.74,3.5l5.41-3.41-.25-.25s-1.42.83-1.67,1c0,0-3.16-2.25-3.24-2.25v-7l7.9-5.16-4.49-8.15Z" transform="translate(0.02 0)"/><path class="cls-1" d="M942.79,24.33l.25.34s.66-.42.83-.5l.42.25c.66.66.91,1.08.91,1.41V41.09l-1.66,1.33,4.57,3.5s4.91-3.33,4.75-3.25l-1.75-1.5V25.91l1-.66,2.24,2.84a5.39,5.39,0,0,0-.33.5,3.68,3.68,0,0,0-.91,2.16c0,.33.41,1.25,1.16,1.25h.08a2.18,2.18,0,0,0,1-.25l.17-.08-.17-.09a2,2,0,0,1-.75-.33.09.09,0,0,1-.08-.08h0a1.48,1.48,0,0,1-.5-.92,3.42,3.42,0,0,1,1-2,26.91,26.91,0,0,1,3.74-3.07L956,21.43l-4.74,3.08a8.33,8.33,0,0,0-2.92-3.74c-.66.5-5.57,3.57-5.57,3.57" transform="translate(0.02 0)"/><path class="cls-1" d="M979.73,24.25l.25.42s.75-.5.92-.59l.33.25c.67.59.92,1,.92,1.34V42.81l2.91,3,5.57-2.91-.41-.58a9.12,9.12,0,0,1-.83.41L988,41.32V23s-2.74-2.24-2.83-2.33-5.41,3.58-5.41,3.58" transform="translate(0.02 0)"/><path class="cls-1" d="M739.92,49.38c-1.91-.17-3.16-1.33-3.16-2.91,0-4.33,7.49-5.66,10.15-5.66h.57a20.23,20.23,0,0,1,4.58.58l.5.17A27,27,0,0,1,749,45.39c-.33.25-.58.58-.92.83a17.58,17.58,0,0,1-2.73,1.87,10.78,10.78,0,0,1-2.85,1.12c-.33.09-.58.09-.83.17a6.58,6.58,0,0,1-1.17.08,1.26,1.26,0,0,1-.58-.08m17.47-12.9h0l3.5-5.16c4.58.92,7.65,3.42,7.65,5.91a6.2,6.2,0,0,1-1.41,3.66L767,41a32,32,0,0,0-9.66-4.5m-1.72-12.89c-1.67-.34-9.74-2.67-9.74-6.16,0-4,5.24-4,7.82-4,.58,0,6.49.5,9.32,4.25,0,.08-3.41,5.24-4.16,6.4a18.64,18.64,0,0,1-3.24-.49m1.74-15.65c-8.4,0-13.39,6.91-13.31,11.48.08,2.83.58,6,2.08,7.33s4.08,2.34,8.49,3.34l.33.08-.75.75c-1.16,1-2,1.91-4.16,1.91a3.06,3.06,0,0,1-2.5-.91h-.09a3.68,3.68,0,0,0,.83,1.16,2.15,2.15,0,0,0,1.42.92,3.51,3.51,0,0,0,1.58-.09,8.34,8.34,0,0,0,3.74-2.58l.5-.5.5-.49,3.16.58a4.54,4.54,0,0,1,1.09.25L759,33.09c-1.66,2.41-2.24,3.16-2.24,3.16s-1.08-.16-1.42-.16a26,26,0,0,0-4.32-.25c-3.83,0-9.16,1.33-12.4,4.41a12.38,12.38,0,0,0-1.67,2.08,7.69,7.69,0,0,0-1.16,4.07c0,1.84,1.25,4.08,4.91,4.08,4.82,0,9-4.41,11.23-6.74l.33-.41a8.84,8.84,0,0,0,1.17-1.42,39.65,39.65,0,0,1,10.32,4.66,52.84,52.84,0,0,0,4.91-6.16c1.08-1.58,3.66-5.32,3.74-8.15s-2.58-6-7.4-7a12.79,12.79,0,0,1,1.16-1.91c2-3,3.83-6.16,7.66-6.16a3.32,3.32,0,0,1,2.91,1.5.09.09,0,0,0,.08.08h0l.08-.08a2.53,2.53,0,0,0,.75-1.59,1.65,1.65,0,0,0-.58-1.33,2.32,2.32,0,0,0-1.55-.68h-.42c-1.74,0-3.66,1.08-5.65,3a24.78,24.78,0,0,0-3.58,4.58c-.92,1.41-1.33,2-1.58,2.41a38.17,38.17,0,0,1-4.25-.75c.59-.91,2.33-3.91,4.33-6.65q1.92-2.55,4.08-4.91a1.49,1.49,0,0,1,.41-.34c.09-.08.34-.16.34-.24s-.25-.34-.25-.34a.83.83,0,0,1-.25.09,1.21,1.21,0,0,1-.59.16c-.33,0-.66-.25-1.24-.75a15.05,15.05,0,0,0-9.41-3.41Z" transform="translate(0.02 0)"/><path class="cls-1" d="M673.6,40.64a3.33,3.33,0,0,1,.5-.25c3.66-2.33,5.49-4.57,5.49-6.65V19.17a21.17,21.17,0,0,0,4.41.59V41.48a13.27,13.27,0,0,1-4.33.66,13.11,13.11,0,0,1-6.07-1.5m-1.12-.55c-3.74-2.33-5.65-7-5.9-12-.17-3.58,1.74-8.32,4.57-11.32a22.31,22.31,0,0,1,2.67.83V37.15a6.68,6.68,0,0,1-1.09,3.08Zm-9.9-13.23c-1.66-.83-2.41-2.83-2.49-4.58-.17-4.16,2.91-6.07,7-6.07a16.76,16.76,0,0,1,3.32.33c-5.74,5.58-7.57,10.4-7.57,10.4ZM656.92,19a10.5,10.5,0,0,0,5.5,8.48l.16.09a10.75,10.75,0,0,0-.91,3.74c0,6.07,3.91,15.48,15.06,15.48A15.29,15.29,0,0,0,684.05,45a15.68,15.68,0,0,0,4.66-3.83A18.55,18.55,0,0,0,692,35.6h-.09c-3.41,4.07-6.49,5.41-7,5.57V19.84h0c3.91-.17,6.66-2.33,6.66-5.91a4.3,4.3,0,0,0-.33-1.58,5.59,5.59,0,0,1-4.2,1.74,34.2,34.2,0,0,1-9.07-1.75c-3.41-.91-6.91-1.91-10.32-1.91-5-.09-10.74,2.16-10.74,8.49" transform="translate(0.02 0)"/><path class="cls-1" d="M847.26,23.92l.25.41s.92-.58,1.08-.66c0,0,1.75,1.58,1.75,3.08v18a5.37,5.37,0,0,0-4.08,5.66,4.57,4.57,0,0,0,4.16,4.16,23.89,23.89,0,0,0,5.66-.48c1.1-.14,2.22-.22,3.33-.25a4.37,4.37,0,0,1,3.41,1.25c.09.17.25.25.42.42h0a4.19,4.19,0,0,0,1-2.5,3.81,3.81,0,0,0-2.08-3.66,7.68,7.68,0,0,0-3.66-.67,6.59,6.59,0,0,0-1.09.09l-2.58.25a30.21,30.21,0,0,0-3.41.41,6.56,6.56,0,0,1-1.08.09,2.22,2.22,0,0,1-1.66-.59,1.55,1.55,0,0,1-.5-1.16c.16-1.5,2.08-2.16,2.66-2.25h.83a34.64,34.64,0,0,0,6.58.67,6.49,6.49,0,0,0,2.74-.58,9.09,9.09,0,0,0,2.5-1.5,6.59,6.59,0,0,0,1.58-1.83,5.08,5.08,0,0,0,.66-2.5V22.5c-.16-.16-2.91-1.83-2.91-1.83l-4.49,2.92,1.58,1.33V42.09c0,1.5-1.33,2.58-3.08,2.58a3.2,3.2,0,0,1-.75-.09V23.17l-3.91-2.5Z" transform="translate(0.02 0)"/><path class="cls-1" d="M1054.48,17.93a12.33,12.33,0,0,0-2.33,2.91c-.83,2-.59,5-.59,5.66-6.4.66-7.57,3.49-7.4,5.91a5.82,5.82,0,0,0,.17.83l.08.33c1.33-1.66,3.08-2,5.32-2.08a5.3,5.3,0,0,1,1.25.17,1.09,1.09,0,0,1,.58.5c.09.16.09,5.49.09,5.49a3.36,3.36,0,0,1-.42,1.91c2.08-1,4.5-3.08,5.16-4.41.83-1.66.75-4.91.75-8.4-.08-4-.17-8.49,1.08-11.74a14.92,14.92,0,0,0-3.74,2.92" transform="translate(0.02 0)"/><path class="cls-1" d="M1041,15a4.66,4.66,0,0,0,.83,2.42c-.08-.34-.17-.59-.25-.92,0-1.25,1-2.08,2.66-2.08.25,0,1.33.25,3.83.75,1.33.25,3,.67,3.25.67h1.24c1.42,0,4.25-1.67,7.66-4.41l.58-.5a7.4,7.4,0,0,1-2.74.66,18.24,18.24,0,0,1-5-1.08,21.09,21.09,0,0,0-5.66-1.25c-3.82.09-6.4,2.42-6.4,5.74" transform="translate(0.02 0)"/><path class="cls-1" d="M1063.48,9.86c-3.74,2.49-4.24,4.9-4.57,7.23,0,.25-.09,1.84-.09,2.17V37.09a3.43,3.43,0,0,1-.41,1.91,13.34,13.34,0,0,0,5.16-4.41c.83-1.67.83-4.83.83-8.32v-1.6l3.91,2.74V41.23a14.41,14.41,0,0,1-2.08,6.9,26.61,26.61,0,0,1-5.82,6.16,2.64,2.64,0,0,0,.49-.08,9.85,9.85,0,0,1,4.75.58c.58.17,1.25.25,1.58.33,2.58.09,5-1.5,7.07-4.49a19.69,19.69,0,0,1-8.74-.17c5.66-3.66,8.58-8,8.58-11.9v-14l-4.33-4.24-5.49,3.41V11.27a1.17,1.17,0,0,1,.41-.92,4.09,4.09,0,0,1,1.25-.16c1.42.08,3.41,2.24,4.74,3.83.75-.5,3.25-2.25,5.16-3.58a5.31,5.31,0,0,0-2.7-2.35,8.18,8.18,0,0,0-3-.67c-1.66-.33-3.91.5-6.74,2.42" transform="translate(0.02 0)"/><path class="cls-1" d="M697.23,9.69a6.58,6.58,0,0,0-1.75-.42A2.24,2.24,0,0,0,693.15,11a5.86,5.86,0,0,1,1.09.75c.41.5.58,2.33.58,3.66V41.64L693.24,43l4.49,2.92,4.49-2.8s-1.49-1.17-1.58-1.33v-16l1.5-.92,2.16,2.42v15.3c0,1.58,2.5,3.49,2.5,3.49-1.33,1.25-3.41,4.08-3.41,5.66a2.62,2.62,0,0,0,2.49,2.75h.17a3.1,3.1,0,0,0,1.43-.37,1.72,1.72,0,0,0,.91-1V53a2.58,2.58,0,0,1-.83.08h-.67a3.17,3.17,0,0,1-2.08-.75,1.07,1.07,0,0,1-.33-1,5.1,5.1,0,0,1,.92-2.82,8.72,8.72,0,0,1,2.49-2.5c.84-.67,3.5-2.41,3.91-2.66v-.09a4.35,4.35,0,0,1-1.49-3V23l-3.5-2.24-6.07,3.91V14.18c0-1.83-.09-5,1.16-6.32a3.72,3.72,0,0,0-1.41-.5,3.65,3.65,0,0,0-3.25,2.33" transform="translate(0.02 0)"/><path class="cls-1" d="M1132.68,9a5.38,5.38,0,0,0-1.67-.41,2.22,2.22,0,0,0-2.33,1.74,5.79,5.79,0,0,1,1.08.75c.42.5.59,2.33.59,3.66v26.8l-1.42,1.25,4.33,2.91,5.49-3.5-.25-.33-1.16.75-1.17-1.08s0-23.13.08-30.54a5.39,5.39,0,0,1,1.17-3.49A3.77,3.77,0,0,0,1136,7c-1.91.16-2.58,1.33-3.32,2" transform="translate(0.02 0)"/><path class="cls-1" d="M931.39,40.23V24.33l.41-.16,3.08,3.24V42.64Zm-6-15.06c-.09,0,.25.5.25,1.08V42.56l5.07,3.66a27.47,27.47,0,0,1,9.82-4.08L940.61,24l-3.74-3.33a48.84,48.84,0,0,1-11.48,4.5" transform="translate(0.02 0)"/><path class="cls-1" d="M1146.9,40.14V23.92l.5-.33,3,2.74V42.47Zm-5.82-22.21c1.17,1,3.83,3.49,5,4.49A14.67,14.67,0,0,1,1141,25c-.09,0,.25.5.25,1.08V42.39l5.07,3.66a27.91,27.91,0,0,1,9.82-4.08l.08-17.55-15-13.73c-.17.75-.17,5.91-.17,7.24" transform="translate(0.02 0)"/><path class="cls-1" d="M800.41,40.09V23.83l.5-.33,3,2.75V42.39Zm-5.82-22.3c1.16,1,3.83,3.5,5,4.49a14.44,14.44,0,0,1-5.11,2.55c-.09,0,.25.5.25,1.08V42.22l5.07,3.67a27.47,27.47,0,0,1,9.82-4.08l.08-17.56-15-13.73c-.17.83-.17,6-.17,7.24" transform="translate(0.02 0)"/><path class="cls-1" d="M1112.37,39.81a7.32,7.32,0,0,1-.75-3.08,3.57,3.57,0,0,1,.5-1.83,2,2,0,0,1,.75-.58.62.62,0,0,1,.75,0,9,9,0,0,0,5,1.25l.09,4.49L1115,42.31a5.4,5.4,0,0,1-2.58-2.5m1.67-6.41c-3.42-2.91-.42-6.74,3.24-8.23l1.25,1.24v8.08h-.33a6.86,6.86,0,0,1-4.16-1.09m3.24-9.23-3.41-3.25-4.4,3.41,3.08,3.33c-.5.67-1.75,3.16-.25,5.16a6.13,6.13,0,0,1,.42.58l-.42.17a7.25,7.25,0,0,0-4.91,6.16c0,1.83.91,4.91,3.49,6.24l7.91-4.74.08.58a8.43,8.43,0,0,0,2.17,4.33l4.74-3.25-.33-.5a1.83,1.83,0,0,1-.5-1.33V23.5c-.34-.25-2.92-2.66-2.92-2.66Z" transform="translate(0.02 0)"/><path class="cls-1" d="M967.67,24.75l-.17-.33A7.11,7.11,0,0,0,964.84,21h0L959,24.75l.25.33s.67-.41.92-.58a6.74,6.74,0,0,1,1.58,2.91V41.73l-1.58,1.36L964.67,46l4.5-2.83-1.59-1.33V26l1.5-1,2.17,2.33V42.09c0,1.75,1.41,3,2.49,3.83l5.41-3.5-.25-.33-1,.66a5.92,5.92,0,0,1-.83-.75V23l-3.33-2.16Z" transform="translate(0.02 0)"/><path class="cls-1" d="M839.77,24.42l3.71,6.15L839.82,33Zm-6,2.41V42.47c1.75,1.25,5.74,3.5,5.74,3.5l5.41-3.41-.25-.25-1.66,1s-3.15-2.22-3.24-2.22v-7l7.91-5.16-4.5-8.15Z" transform="translate(0.02 0)"/><path class="cls-1" d="M1083.48,24.5l3.66,6.16-3.66,2.43Zm-6,2.33V42.47c1.74,1.25,5.74,3.5,5.74,3.5l5.41-3.41-.25-.25-1.67,1s-3.13-2.22-3.23-2.22v-7l7.9-5.16-4.49-8.15Z" transform="translate(0.02 0)"/><path class="cls-1" d="M1091.9,24.33l.25.34s.67-.42.83-.5l.42.25a2.19,2.19,0,0,1,.92,1.41V41.09l-1.67,1.33,4.58,3.5s4.91-3.33,4.74-3.25l-1.75-1.5V25.91l1-.66,2.26,2.84a5.39,5.39,0,0,0-.33.5,3.69,3.69,0,0,0-.92,2.16c0,.33.42,1.25,1.08,1.25h.09a1.62,1.62,0,0,0,.91-.25l.17-.08-.17-.09a1.5,1.5,0,0,1-.75-.33.09.09,0,0,1-.08-.08,1.48,1.48,0,0,1-.5-.92,3.74,3.74,0,0,1,1-2,26.91,26.91,0,0,1,3.74-3.07L1105,21.43s-4.08,2.66-4.75,3.08a8.19,8.19,0,0,0-2.91-3.74c-.58.5-5.41,3.57-5.41,3.57" transform="translate(0.02 0)"/><path class="cls-1" d="M1014.48,48.88s7.07-5.82,7.73-6.32a15,15,0,0,1,2.67,3,4.78,4.78,0,0,1,.75,2.75c0,1.08-.25,1.83-1.5,3.16l-.75-.42c-1.83-1-3.58-1.91-5.49-1.91h-.5c-.67.08-1.67.25-2.58.42Zm6.9-7c-1.5-.58-3.24-3-3.24-4.33v-13l.58-.25,4,3.58V41l-1.24,1ZM1012,25.41l.58.58v9.57a17.06,17.06,0,0,0,.58,5.32,7.75,7.75,0,0,0,3.58,4.33l.42.25L1008,53a4.85,4.85,0,0,1,.16,1,2,2,0,0,0,.75-.25,7.44,7.44,0,0,1,3.5-.75c2.49,0,5.15,1.58,6.4,2.33.19.12.39.23.59.33.74-.17,3.66-2.33,6.24-4.58a37.59,37.59,0,0,0,3.57-3.57c1.09-1.25,1.59-2.17,1.59-2.83a4.16,4.16,0,0,0-1.17-2.33,4.79,4.79,0,0,1-1.33-2.75V24.25s-2.91-2.5-4.08-3.66c-.83.67-6.66,3.24-12.23,4.83" transform="translate(0.02 0)"/><path class="cls-1" d="M1056,39.4c-6.33.16-11.48,5.82-11.4,11.4,0,2.24.83,5.65,4.24,5.65a2.2,2.2,0,0,0,2.5-1.85,2.29,2.29,0,0,0,0-.64,3.17,3.17,0,0,0-.25-1.25c-.25.58-1.33,2.08-2.5,2.08-2.41-.08-3.16-2-3.16-3.58,0-3.41,2.58-7.4,6.91-7.4,2.41,0,4.74,1,7.07,3.49,0,0,5.08-3.58,5-3.66-2.74-3.33-4.41-4.33-7.74-4.33a1.85,1.85,0,0,1-.66.09" transform="translate(0.02 0)"/><path class="cls-1" d="M894.36,41.64a13.78,13.78,0,0,1-3.33-.25,9.21,9.21,0,0,0-2.5-.41c-.41,0-.83-.09-1.08-.09-4.41,0-5.74,3.75-5.74,6.08,0,4,1.91,8.32,7.24,8.32,1.58,0,5.08-.92,5.08-4,0-.08-.34-1.91-1.25-1.91h-.67c.09.58.5,1.42.5,1.75,0,2.08-2.91,3.16-4.16,3.16-2.83,0-5.49-1.66-5.49-5.08,0-1.91.91-3.82,3.24-3.82,2,0,4.41,1.16,6.33,1.16,4.41-.08,5.41-2.91,5.49-8.74-.33.67-1.91,3.75-3.66,3.83" transform="translate(0.02 0)"/><path class="cls-1" d="M883.29,15a5.15,5.15,0,0,0,2.25,3.67l.08-.09a2.83,2.83,0,0,1-1.16-2c0-1.42,1.25-3,3.58-3a27.49,27.49,0,0,1,3.24.58,14.34,14.34,0,0,0,1.58.34c1.92.08,4.91-1.92,6.74-3.83l.08-.09h-.08a9.93,9.93,0,0,1-4.08-1,10.72,10.72,0,0,0-4.16-1c-3.91,0-8.07,2.74-8.07,6.4" transform="translate(0.02 0)"/><path class="cls-1" d="M908.84,15l2.08-1.58,3.74,3.41V25.5h-5.74V15Zm-11,.17L900,13.43s3,2.42,3,2.5v9.65h-5.16Zm11.49-2.33-2.5-1.91a29.36,29.36,0,0,0-3-2.33C903.08,9,892,18.18,892,18.18v7.65h-.25c-6.16.83-6.66,5.41-6.66,6.83a7.72,7.72,0,0,0,.38,1.43v.17l.08-.17a7.8,7.8,0,0,1,1.66-2,6.68,6.68,0,0,1,2.42-1c2-.25,2.16-.08,2.24,0l.09.09v8.15a2.4,2.4,0,0,1-.42,1.58c2.16-1.08,4.66-3.16,5.41-4.57.91-1.75.83-1.67.83-5.33v-.42H903v9.5l-1.83,1.83,6.07,3.91,5.66-4.07-.83-.42a4.08,4.08,0,0,0-.33.25,1.29,1.29,0,0,1-.59.25A6.2,6.2,0,0,1,908.61,40V30.57h5.57v8.91a6.74,6.74,0,0,0,.75,3.24,13.05,13.05,0,0,0,3.25,3.17c.58-.34,5.74-4,5.74-4l-.58-.33s-.59.5-.84.41a1.49,1.49,0,0,1-.58-.24,3.64,3.64,0,0,1-1.66-3.17V15.85a4.1,4.1,0,0,1,.91-2.67v-.09c-.58-.5-1.25-1-2.08-1.66-1.33-1.17-3.24-2.5-4.24-3.33.25.25-5.08,4.41-5.49,4.74" transform="translate(0.02 0)"/><path class="cls-2" d="M1287.54,2.09c-.2,3.38-.4,6.76-.6,10.25l-5.06-.18c-.12-2.13-.23-4.19-.35-6.32h-7.89V21h3.42c.26-1.1.53-2.19.8-3.33h3.52V28.09h-3.46c-.28-1.11-.57-2.26-.87-3.43h-3.39v16h7.92c.26-2.28.51-4.54.77-6.93l5.33.18c.14,3.56.28,7.06.42,10.62h-25.93V40.79l3.64-.63V6.25l-4.07-.45V2.09Z" transform="translate(0.02 0)"/><path class="cls-2" d="M1379.3,58.89c.07-1,.13-2,.19-2.92l2.75-.6V19.19L1379,18.7v-3l8.63-1.2.9,3.23a2.59,2.59,0,0,0,.35-.31,8.79,8.79,0,0,1,7.92-3c3.89.38,6,2.83,7.11,6.34a22.64,22.64,0,0,1,.92,4.83,37.6,37.6,0,0,1-.34,10.05,18,18,0,0,1-1.06,3.61,9,9,0,0,1-8,5.67,11.25,11.25,0,0,1-5.59-.81,3,3,0,0,0-.43-.12V55.37l2.94.61c-.07,1-.13,1.9-.2,2.91Zm10-18.91a9,9,0,0,0,6.78.23,1.13,1.13,0,0,0,.81-.85,32.46,32.46,0,0,0,.78-3.38,48.58,48.58,0,0,0,.18-10.44,15.47,15.47,0,0,0-.67-3.5c-.76-2.46-2.43-3.41-5-3l-.38.08a3,3,0,0,0-2.5,3V40Z" transform="translate(0.02 0)"/><path class="cls-2" d="M1475.28,40.83l3,.61c0,1-.11,2-.16,3.07h-9.88V24.17a8.78,8.78,0,0,0-.47-2.64,2.74,2.74,0,0,0-2.21-1.81,4.83,4.83,0,0,0-3,.25,2.15,2.15,0,0,0-1.48,2V40.59a1.37,1.37,0,0,0,.07.29l2.9.59c-.06,1-.12,2-.19,3.09h-12.72V41.45l2.83-.61V19.49l-3.24-.37V16l8.39-1.2q.39,1.4.75,2.73c.64-.48,1.29-1.05,2-1.51a9.59,9.59,0,0,1,8.81-1,6.65,6.65,0,0,1,4.36,5.6,13.76,13.76,0,0,1,.18,2.22V39.69Z" transform="translate(0.02 0)"/><path class="cls-2" d="M1300.56,40.84l2.93.59c-.06,1-.12,2-.19,3.08h-12.82c.06-1,.11-2,.17-3.07l2.73-.59c.2-.69.25-20.27,0-21.36l-3.24-.37V16l8.41-1.2c.25.93.5,1.81.76,2.79.24-.2.5-.45.78-.68a9.89,9.89,0,0,1,9.16-2.13,6.7,6.7,0,0,1,5.2,5.63,11.16,11.16,0,0,1,.21,2.31V40.87l3,.59a11.05,11.05,0,0,1-.07,1.52,11.89,11.89,0,0,0,0,1.58h-9.93V24.78a15,15,0,0,0-.18-2.22,3.14,3.14,0,0,0-3-2.9,3.66,3.66,0,0,0-3.45,1,2.23,2.23,0,0,0-.54,1.5V39.8C1300.48,40.16,1300.54,40.48,1300.56,40.84Z" transform="translate(0.02 0)"/><path class="cls-2" d="M1520.7,18.7l-3.26-.32V15.61l9.6-1.1a11,11,0,0,1,.8,3.53V40.83l3,.61c-.1,1-.2,2-.31,3.07h-8.27c-.23-.73-.49-1.51-.78-2.39-.27.21-.47.35-.65.51A9.76,9.76,0,0,1,1510.05,44a6.92,6.92,0,0,1-3.86-5.37,13.92,13.92,0,0,1-.2-2.41V18.73l-3.27-.36V15.61l9.56-1.1a13.43,13.43,0,0,1,.73,3.19V34.77a17.93,17.93,0,0,0,.16,2.31,3.54,3.54,0,0,0,3.7,3.36,9.11,9.11,0,0,0,2.2-.3,3.08,3.08,0,0,0,1.77-2.33V19C1520.8,18.9,1520.75,18.8,1520.7,18.7Z" transform="translate(0.02 0)"/><path class="cls-2" d="M1363.31,31.55A11.05,11.05,0,0,0,1365,38a5.65,5.65,0,0,0,4.82,2.6,13.61,13.61,0,0,0,5.56-1.11c.23-.1.47-.18.8-.31l1.2,2.76c-.51.38-1,.73-1.58,1.06a14.51,14.51,0,0,1-11.3,1.44,11,11,0,0,1-6.93-6.32,20.39,20.39,0,0,1-1.63-10.6,19,19,0,0,1,1.62-6.45,10.59,10.59,0,0,1,7.63-6.4c3.51-.74,6.77-.3,9.46,2.3a12.19,12.19,0,0,1,3.09,5.61,24.12,24.12,0,0,1,.86,6.6,8.09,8.09,0,0,1-.66,2.2Zm8.82-3.82c-.08-.9-.12-1.63-.21-2.37a13.29,13.29,0,0,0-1.42-5,3.29,3.29,0,0,0-4.27-1.63,2.22,2.22,0,0,0-1.5,1.36,22.58,22.58,0,0,0-1.56,7.44,2.53,2.53,0,0,0,.11.6Z" transform="translate(0.02 0)"/><path class="cls-2" d="M1501.48,31.37l-14.59.18a9.45,9.45,0,0,0,.24,3,8.61,8.61,0,0,0,1.82,4,5.52,5.52,0,0,0,4.22,2,12.76,12.76,0,0,0,5.39-1c.35-.15.71-.28,1.15-.45l1.2,2.8-.48.32a14.72,14.72,0,0,1-10.29,2.6c-4.58-.5-7.64-3.19-9.3-7.36a21,21,0,0,1,.16-16.24,10.4,10.4,0,0,1,7.67-6.63,10.26,10.26,0,0,1,8.35,1.33,10.56,10.56,0,0,1,3.73,5.07,20.57,20.57,0,0,1,1.33,8.07A9.7,9.7,0,0,1,1501.48,31.37Zm-5.83-3.63a21,21,0,0,0-.89-5.73,8,8,0,0,0-1.35-2.54c-1.15-1.48-4.71-1.18-5.25.85a42.1,42.1,0,0,0-1.23,4.95,8.91,8.91,0,0,0-.11,2.87Z" transform="translate(0.02 0)"/><path class="cls-2" d="M1449.53,31.37l-14.6.18a10.38,10.38,0,0,0,2.1,7,5.45,5.45,0,0,0,4.12,2,13.09,13.09,0,0,0,5.49-1l1.14-.46c.39.91.77,1.78,1.18,2.75-.34.25-.65.51-1,.73a14.66,14.66,0,0,1-10.87,2.07,10.79,10.79,0,0,1-7.74-6.18,19.83,19.83,0,0,1-1.87-10.37,19.65,19.65,0,0,1,1.66-7,10.61,10.61,0,0,1,5.71-5.78,10.91,10.91,0,0,1,9.54.3,9.79,9.79,0,0,1,4.23,5,21.43,21.43,0,0,1,1.55,8.52A8.32,8.32,0,0,1,1449.53,31.37Zm-5.78-3.64c-.09-1-.14-1.84-.25-2.69a12.4,12.4,0,0,0-1.35-4.61,3.34,3.34,0,0,0-4.42-1.67l-.18.09a1.87,1.87,0,0,0-1.08,1,20.08,20.08,0,0,0-1.53,6c-.09.73-.13,1.45-.2,2.32Z" transform="translate(0.02 0)"/><path class="cls-2" d="M1344.08,14.78c.23.9.44,1.73.66,2.63l1-.63a16.39,16.39,0,0,1,6.61-2,2.51,2.51,0,0,1,2.59,1.19c-.29,2.58-.58,5.2-.88,7.91l-4.76-.19c-.18-1.45-.35-2.82-.52-4.24a6.2,6.2,0,0,0-3,1.06V40.86l2.94.67c0,1-.11,1.94-.16,3h-12.71v-3l2.66-.67V19.48l-3-.39V16Z" transform="translate(0.02 0)"/><path class="cls-2" d="M1532.6,44.53c.05-1,.09-2,.14-3l2.64-.65V19.5l-3.12-.38V16l8.66-1.19c.23.9.44,1.73.64,2.49a35.47,35.47,0,0,1,3.67-1.65,31.74,31.74,0,0,1,3.87-.84,2.36,2.36,0,0,1,2.71,1.18c-.28,2.52-.57,5.14-.88,7.88l-4.74-.17c-.18-1.46-.36-2.85-.55-4.4l-3,1V40.86l2.93.67c-.06,1-.12,2-.19,3Z" transform="translate(0.02 0)"/><path class="cls-2" d="M1420.48,19.26l-3,1.11V40.86l3,.67-.24,3h-12.76v-3l2.7-.68V19.49l-3.1-.36V16l8.59-1.21c.25.86.49,1.71.73,2.55.84-.43,1.65-.89,2.49-1.29a16.62,16.62,0,0,1,4.95-1.26,2.63,2.63,0,0,1,2.76,1.15c-.27,2.53-.56,5.15-.86,7.92l-4.77-.17C1420.8,22.22,1420.63,20.86,1420.48,19.26Z" transform="translate(0.02 0)"/><path class="cls-2" d="M1327.86,9.09v6h5.28c-.12,1.34-.22,2.54-.33,3.78l-4.75.54a4.91,4.91,0,0,0-.1.77V37.52a7.49,7.49,0,0,0,0,1.16,2.2,2.2,0,0,0,2.23,2h3c.11,1.08.22,2.09.32,3.11a6,6,0,0,1-2.4.81,14.8,14.8,0,0,1-5.39.15,5.59,5.59,0,0,1-4.88-5.11,16.87,16.87,0,0,1-.07-1.74V20.46a5.35,5.35,0,0,0-.07-1.05l-3.33-.56c0-1.2.1-2.38.16-3.68l3.76-.18L1323,9.32Z" transform="translate(0.02 0)"/><path class="cls-1" d="M1552.56,42.69a2.51,2.51,0,1,1-2.89-2.07,3,3,0,0,1,.42,0A2.3,2.3,0,0,1,1552.56,42.69Zm-4.21,0a1.75,1.75,0,1,0,1.61-1.61A1.74,1.74,0,0,0,1548.35,42.69Zm1.43,1h-.68v-2a8.39,8.39,0,0,1,1-.06,1.82,1.82,0,0,1,.89.15.47.47,0,0,1,.24.43c0,.19-.21.36-.52.44h0a.62.62,0,0,1,.46.5,2,2,0,0,0,.16.47h-.77a1.06,1.06,0,0,1-.15-.42.35.35,0,0,0-.38-.29h-.23Zm0-1.12h.2c.25,0,.42-.08.42-.23s-.16-.24-.39-.24h-.23Z" transform="translate(0.02 0)"/><path class="cls-2" d="M1795.48,39.34a5.55,5.55,0,1,1-5.55-5.55h0A5.57,5.57,0,0,1,1795.48,39.34Z" transform="translate(0.02 0)"/><path class="cls-2" d="M1772.13,26.36l13.3-1.38q-2-12.37-14.56-14.1c-12.6-1.72-20.4,4.13-22.46,7.11s-3.09,5.61-3.32,10.43,2.75,9.17,3.78,10.31,5.73,6.76,17.65,6.76,15.81-4.58,17.76-8.82a11.6,11.6,0,0,0,1.15-4.47h-13.07q-.57,5.16-5.84,5.16c-5.27,0-6-4.93-5.73-8.94s-.12-9.28,5.5-9.51Q1771.9,18.67,1772.13,26.36Z" transform="translate(0.02 0)"/><path class="cls-2" d="M1746.55,35.29v9.44h-23.77V35h4.49V24.72a4.34,4.34,0,0,0-.79-2.63,4.17,4.17,0,0,0-2.73-1.59,6.51,6.51,0,0,0-5.44,1.18,5.68,5.68,0,0,0-2.28,4.56v8.68c1.54.08,3.06.08,4.6.08v9.78h-24.35V35h4.37V20.3h-4.38V10.52h19.21v6.74c.28-.3.51-.53.72-.77a15.66,15.66,0,0,1,5.33-4.19,15.45,15.45,0,0,1,4.61-1.29,22.75,22.75,0,0,1,8.06.37,11.56,11.56,0,0,1,5.24,2.62,9.14,9.14,0,0,1,2.89,5.23,16.63,16.63,0,0,1,.27,2.82V34.94h4Zm-77.26-24.78h-5.81V0h31.12V10.45h-5.81V34.94h5.8v9.78h-31.11V35h5.79Z" transform="translate(0.02 0)"/><path class="cls-1" d="M270,106h10.29v15.77l.25-.24c2.81-3.14,6.37-3.84,10.29-2.9,3.76.91,5.86,3.57,6.76,7.21a15.15,15.15,0,0,1,.47,3.61c.05,6.16,0,12.32,0,18.49v.34H287.69V132.54a9.38,9.38,0,0,0-.31-2.36,3,3,0,0,0-2.73-2.35,3.43,3.43,0,0,0-3.48,1.52,6,6,0,0,0-.85,3.39v15.52H270Z" transform="translate(0.02 0)"/><path class="cls-1" d="M256.48,121.5V119h10v29.29h-10V145.6l-.62.67a9.54,9.54,0,0,1-6.65,2.77,13.56,13.56,0,0,1-13.7-9.69c-2-6.06-1.1-11.72,3.15-16.62a12.79,12.79,0,0,1,13.68-3.85,8.9,8.9,0,0,1,3.84,2.48l.18.15Zm-11.9,12.14a6.07,6.07,0,1,0,6.14-6h-.05a6,6,0,0,0-6.09,5.91Z" transform="translate(0.02 0)"/><path class="cls-1" d="M201.07,118.94h10.67a.7.7,0,0,1,.77.54q3.13,8,6.29,16.09c.06.14.12.29.22.57.12-.28.21-.46.28-.64q3.15-8,6.29-16a.77.77,0,0,1,.85-.6h10.32c-.09.25-.15.44-.23.62q-8.09,19.52-16.18,39a.78.78,0,0,1-.86.6H209.11c.08-.23.13-.39.2-.55q2-4.77,4-9.55a1.25,1.25,0,0,0,0-1.13l-12-28.37C201.24,119.4,201.18,119.2,201.07,118.94Z" transform="translate(0.02 0)"/><path class="cls-1" d="M315.93,118.21c7,0,12.9,4.11,14.91,10.47,3.15,10-3.38,20.17-14.56,20.36-5.65.1-10.32-2-13.5-6.75-5.8-8.69-1.7-22.12,10.82-23.88C314.37,118.31,315.15,118.28,315.93,118.21Zm0,9.54a5.91,5.91,0,1,0,5.85,6v0a5.76,5.76,0,0,0-5.58-5.94Z" transform="translate(0.02 0)"/><path class="cls-1" d="M333.37,134a15.29,15.29,0,0,1,14.84-15.74,13.42,13.42,0,0,1,1.42,0c5.54.24,10,2.49,12.94,7.32,5.39,8.95.84,22-11.59,23.35-5.7.62-10.6-1.11-14.31-5.63A14.72,14.72,0,0,1,333.37,134Zm15.73-6.24a5.91,5.91,0,1,0,5.84,6v0a5.78,5.78,0,0,0-5.63-5.93Z" transform="translate(0.02 0)"/><path class="cls-1" d="M369.81,132.55l11-26.58H393.1c-.07.2-.14.38-.21.56q-5.26,12.72-10.52,25.44a.78.78,0,0,1-.86.6h-11Z" transform="translate(0.02 0)"/><path class="cls-1" d="M323.75,160.63v-1.4h6v16.55h-5.94v-1.69a5.76,5.76,0,0,1-3.5,2.06,7.22,7.22,0,0,1-7.38-3,9.92,9.92,0,0,1,.42-11.93,7.23,7.23,0,0,1,7.89-2.16A17.59,17.59,0,0,1,323.75,160.63Zm.14,6.9a3.32,3.32,0,0,0-3.28-3.36h-.12a3.36,3.36,0,1,0,3.4,3.36Z" transform="translate(0.02 0)"/><path class="cls-1" d="M309.48,175.8h-6.1V167a5.29,5.29,0,0,0-.13-1.19,1.82,1.82,0,0,0-1.66-1.5,1.88,1.88,0,0,0-2.09,1.16,4.54,4.54,0,0,0-.31,1.63v8.69h-6.07V159.22h6.05V161l.33-.35a5.71,5.71,0,0,1,8.06-.53,5.44,5.44,0,0,1,.42.41,6.73,6.73,0,0,1,1.49,4V175.8Z" transform="translate(0.02 0)"/><path class="cls-1" d="M338.35,159.22v1.69c.12-.07.19-.09.23-.14a5.35,5.35,0,0,1,5.88-1.84,5.17,5.17,0,0,1,4,4.32,8.73,8.73,0,0,1,.22,1.84v10.7h-6.1v-8.87a4.69,4.69,0,0,0-.13-1.18,1.83,1.83,0,0,0-1.71-1.51,1.89,1.89,0,0,0-2.09,1.26,5,5,0,0,0-.26,1.58v8.68h-6.07V159.22Z" transform="translate(0.02 0)"/><path class="cls-1" d="M381.72,169.09H370.29a2.44,2.44,0,0,0,1.13,2,3.4,3.4,0,0,0,4.24-.43.68.68,0,0,1,.87-.21c1.52.61,3.05,1.19,4.63,1.8-.07.15-.14.29-.22.43a8.37,8.37,0,0,1-6.76,3.65,10.31,10.31,0,0,1-5-.74,8,8,0,0,1-4.81-6.93,8.83,8.83,0,0,1,4.32-8.73,9.2,9.2,0,0,1,10,.7,8.24,8.24,0,0,1,3,5.81C381.74,167.32,381.75,168.21,381.72,169.09Zm-5.88-3.49c-.07-1.41-1.27-2.3-2.91-2.24a2.43,2.43,0,0,0-2.56,2.24Z" transform="translate(0.02 0)"/><path class="cls-1" d="M278.23,164.09v11.7h-6.07v-11.7H270V159.2h2.1c.08-.81.11-1.56.24-2.3a6.52,6.52,0,0,1,6.49-5.77,17.55,17.55,0,0,1,3.31.35.64.64,0,0,1,.41.46v4.67c-1.3-.36-2.57-.68-3.66.34a2.5,2.5,0,0,0-.63,2.23h4v4.91Z" transform="translate(0.02 0)"/><path class="cls-1" d="M363.21,165a13.65,13.65,0,0,0-2.34-.69,5.6,5.6,0,0,0-2.23.21,3.1,3.1,0,0,0-2.12,3.48,3.27,3.27,0,0,0,3,2.82c1.16.14,1.77,0,3.65-.84a2.6,2.6,0,0,1,.05.39v4.56a.61.61,0,0,1-.43.68,9.16,9.16,0,0,1-9-.91c-2.71-1.87-3.67-4.65-3.45-7.85.48-6.86,7.26-9.4,12.35-7.44a.66.66,0,0,1,.51.74C363.2,161.73,363.21,163.35,363.21,165Z" transform="translate(0.02 0)"/><path class="cls-1" d="M366.07,142.09a6.93,6.93,0,0,1,6.92-6.94h.09a6.63,6.63,0,0,1,6.7,6.56v.21a6.9,6.9,0,0,1-6.87,6.93h-.13a6.64,6.64,0,0,1-6.71-6.57Z" transform="translate(0.02 0)"/><path class="cls-1" d="M290.48,175.81h-6V159.23h6Z" transform="translate(0.02 0)"/><path class="cls-1" d="M287.48,151a3.37,3.37,0,0,1,3.4,3.34h0a3.41,3.41,0,1,1-3.44-3.38h0Z" transform="translate(0.02 0)"/><path class="cls-1" d="M853.77,121.17v1.36h3.85L853,152.87l-5.35-31.7h-3.85l-4.6,32.45-4.35-31.21h4.35v-1.32h-13.8v1.37h3l6.1,39.91h5l4.18-25.28,4.6,25.24h5l6.09-39.79h4v-1.36Zm-50.11,1.24h4V161h-3.85v1.37h20.26V151.5h-1a34.26,34.26,0,0,1-.87,6.22,6,6,0,0,1-3.61,3.11,29.73,29.73,0,0,1-4,.25V140.69s3.11-.13,4,.37c1.37,1.12,1.49,3.11,1.74,5.35h1V134.35h-1.12a6,6,0,0,1-1.74,4.35c-1.12,1.12-4,.62-4,.62V122.53a37.78,37.78,0,0,1,5.1.13c3,1.49,3.1,4.85,3.48,7.83h1v-9.32H803.54Zm-6.22,0h3.86v-1.32H787.75v1.37h3.35V161h-4v1.37h14.55V161h-4.1c-.07-.11-.07-38.59-.07-38.59Zm-18,0h3.48l-6.1,35.93c-.12,0-6.09-35.93-6.09-35.93h3.61v-1.32H761.48v1.37h2l7.59,39.79h6.59l7.08-39.79h2v-1.37h-7.09v1.37Zm-20.39,35.06c-1.5,3.36-6.59,3.48-9,3.48V141.31s3.48,0,4.35.5c1.37,1,1.75,3,2,5h1V134.35h-1.12c-.12,1.86-.25,4.1-2,5.34-1,.75-4.35.37-4.35.37V122.53c1.37,0,4.23-.25,5.47.25,3.11,1.49,3.23,5.1,3.48,8.21H760v-9.9H740.13v1.37h3.1v38.63h-2.86v1.36h20.52V151.63h-1.12a28,28,0,0,1-.74,5.84Zm-21.64,3.17c-1.74-5.22-2.24-10.44-4.6-15.29-1.49-3-4.72-4.35-7.71-4.6,3.48-.37,7.09-1.74,8.83-5.35,1.12-2.73,1.37-7.21-.37-9.94a9,9,0,0,0-7.48-4.37H709.91v1.37h4V161h-4.1v1.25h14.67v-1.36h-3.61V141.25h.87c1.75.12,4,.74,4.73,2.11,2,3.11,3.61,14.42,4,16.66.12.87,0,1.74.5,2.36h8.82V161a5.6,5.6,0,0,1-2.36-.37Zm-16.93-20.7V122.41c1.12,0,3.86,0,4.6.5,2.86,3,2.61,8.2,2.49,12.18-.25,1.74-.87,3.86-2.61,4.6A21,21,0,0,1,720.48,139.94Zm-24,11.94h-1.37a24.5,24.5,0,0,1-.38,5.34c-.62,1.49-1.86,3.36-3.6,3.61h-5.22V122.28h4.35v-1.36H675.6v1.36h3.6v38.55h-3.72v1.37h21C696.48,159,696.35,155.2,696.48,151.88Zm-33.14-30.71h-6.09L650.53,161H647.3v1.25h8.58v-1.37h-3.6l2.12-12.56h8l2.48,12.56H661v1.37h13.43v-1.37h-2.62c0,.06-8.49-39.66-8.49-39.66Zm-5,25.61h-4l3.14-19.52,4.22,19.52ZM645.9,122.41v-1.32H631.77v1.37h3.48V161h-3.6v1.37h14.17V161h-3.34V122.41Zm-22.42,38.36c-1.37.74-4,.49-5-.63-2.12-2.48-3.49-6.71-3.73-10.07-.75-7.71-.75-11.44.24-17.53.5-3.48,1.5-7,3.86-9.45,1.49-1.36,4.1-1.12,5.72-.25,3.23,2.12,3.11,6.1,3.36,9.58h1.36V121h-1.12c0,.62,0,1.12-.49,1.49-1.12.25-1.74-1.12-2.61-1.37-2.37-1.36-5.72-.87-8.09.38a19,19,0,0,0-9.2,14.92c-.87,9.32.5,19.14,8.21,24.61,2.49,1.12,6,2.49,8.45.63,0,0,2-2,2.74-2s.75,1.36.75,2.24H629V151.69h-1.49c-.25,3.42.25,6.15-4.1,9.08Zm-15.54-38.36v-1.32h-8.21v1.37h3.11v27.35l-11-28.72h-9.7v1.37h3.48V161H582v1.37h8.82V161h-3.48V128.38l12.93,34.06h4.35V122.66h3.49ZM571,121.17h-6.34L557.83,161h-3.48v1.25h9.32v-1.37h-4L561.78,148h7.34l2.61,12.81H568v1.37h12.8v-1.37h-1.86c.11.06-8-39.66-8-39.66Zm-9.08,25.36,3-18.28,3.85,18.28Zm-5.84-24.12v-1.32h-8.45v1.37h3.48v28.35l-11.19-29.59H530.1v1.36h3.49v38.51H530v1.24h9.2V161h-3.73V129.09l12.19,33.32h5.22V122.66h3.35a.42.42,0,0,1-.16-.25Zm-31.46,0h3.61v-1.32h-14.3v1.37h4V161h-4.6v1.37h15.14V161h-3.86Zm-34.31,0h5.16V161h-5.2v1.37h16.29V161h-4.36V141h3.61c1.86,0,2.24,3.49,2.11,5.35h1.37V133.6h-1.37c.13,2.11-.37,6.09-2.11,6.09h-3.48V122.28c2.24.13,5.72.25,7.33,2,2.12,2.12,2,5.23,2.24,8.09h1v-11.2H490.28Z" transform="translate(0.02 0)"/><g id="layer1"><g id="g3120"><g id="g3108"><path id="path3084" class="cls-1" d="M983.48,135.09a7.18,7.18,0,0,0-.44,10.16,7,7,0,0,0,1.67,1.35l20.13,13.67-9.72-22.18a7.09,7.09,0,0,0-11.6-3" transform="translate(0.02 0)"/><path id="path3086" class="cls-1" d="M1000.85,124.27a7.12,7.12,0,0,0-6.52,7.67,7.2,7.2,0,0,0,.52,2.15l10.1,23.56,3.55-24.78c.82-6.16-3.89-9-7.65-8.6" transform="translate(0.02 0)"/><path id="path3088" class="cls-1" d="M1010.07,131.92H1012s1,0,1.16.48c-.75.6-2.8.68-2.53,3.92l3.21,21.33,10-23.63a7.17,7.17,0,0,0-6.07-9.81h-.54a7.08,7.08,0,0,0-7.2,7q0,.39,0,.78" transform="translate(0.02 0)"/><path id="path3090" class="cls-1" d="M1023.48,138.29,1014,160.15l20.13-13.74a7.09,7.09,0,0,0,2.26-9.77,6.73,6.73,0,0,0-1-1.23,7.2,7.2,0,0,0-5.2-2.14c-2.5,0-5.18,1.31-6.73,5.06" transform="translate(0.02 0)"/><path id="path3092" class="cls-1" d="M1031.84,149.52l-18.91,13.07h23.28c4.77,0,7.84-4.88,6.48-9.35a7.3,7.3,0,0,0-6.76-5,7.4,7.4,0,0,0-4.09,1.3" transform="translate(0.02 0)"/><path id="path3094" class="cls-1" d="M983,162.59h22.93L987,149.52c-4.37-2.78-9.28-1.15-11,3.46a7.31,7.31,0,0,0,7,9.61" transform="translate(0.02 0)"/></g><g id="flowRoot3020"><path id="path3029" class="cls-1" d="M1093.25,162.67V118.26h-10.53L1071,137.09l-11.67-18.78h-10.53v44.41h9.58v-28.8l12.37,18.78h.25l12.5-19v29Z" transform="translate(0.02 0)"/><path id="path3031" class="cls-1" d="M1131.48,149.54v-.13a12.4,12.4,0,0,0-.92-5,10.14,10.14,0,0,0-2.73-3.65,16.68,16.68,0,0,0-4.44-2.66,44,44,0,0,0-6-2q-2.85-.76-4.73-1.33a13.66,13.66,0,0,1-3-1.21,3.7,3.7,0,0,1-1.49-1.42,4.15,4.15,0,0,1-.41-1.87v-.18a3.36,3.36,0,0,1,1.43-2.76,6.9,6.9,0,0,1,4.28-1.11,15,15,0,0,1,5.71,1.17,32.51,32.51,0,0,1,5.84,3.21l5.07-7.36a26,26,0,0,0-7.52-4.19,26.74,26.74,0,0,0-9-1.46,20,20,0,0,0-6.28,1,14.46,14.46,0,0,0-4.91,2.73,12.54,12.54,0,0,0-3.21,4.22A12.82,12.82,0,0,0,1098,131v.12a12.93,12.93,0,0,0,1,5.52,10.26,10.26,0,0,0,3,3.71,17,17,0,0,0,4.63,2.51,54,54,0,0,0,6.09,1.84c1.86.47,3.37.91,4.54,1.33a13.74,13.74,0,0,1,2.72,1.27,3.57,3.57,0,0,1,1.34,1.36,3.94,3.94,0,0,1,.35,1.69v.12a3.49,3.49,0,0,1-1.69,3.08,8.46,8.46,0,0,1-4.72,1.11,16.72,16.72,0,0,1-7-1.46,29.22,29.22,0,0,1-6.25-3.93l-5.77,6.91a26.2,26.2,0,0,0,8.88,5.36,29.17,29.17,0,0,0,10,1.75,22.68,22.68,0,0,0,6.6-.92,15.06,15.06,0,0,0,5.13-2.67,12,12,0,0,0,3.37-4.31,13.63,13.63,0,0,0,1.2-5.87Z" transform="translate(0.02 0)"/><path id="path3033" class="cls-1" d="M1174.83,162.67V118.26h-9.65v27.35l-20.8-27.35h-9v44.41H1145V134.44l21.46,28.23Z" transform="translate(0.02 0)"/><path id="path3035" class="cls-1" d="M1218.53,150.49v-.12a10.11,10.11,0,0,0-2.22-7,15.1,15.1,0,0,0-6.09-4,12.18,12.18,0,0,0,2.25-1.52,10,10,0,0,0,1.84-2.06,10.3,10.3,0,0,0,1.75-6v-.12a10.19,10.19,0,0,0-3.91-8.38q-3.9-3.11-10.75-3.11h-20.62v44.41h21.13a28.42,28.42,0,0,0,6.82-.76,15.61,15.61,0,0,0,5.26-2.28,10.27,10.27,0,0,0,3.36-3.81,11.44,11.44,0,0,0,1.18-5.33Zm-12.18-19a3.84,3.84,0,0,1-1.87,3.6,10.13,10.13,0,0,1-5.13,1.11h-9v-9.39H1200a8.13,8.13,0,0,1,4.76,1.17,3.94,3.94,0,0,1,1.65,3.4Zm2.47,17.77a4,4,0,0,1-1.84,3.65,9.35,9.35,0,0,1-5.07,1.17H1190.3v-9.77h11.29q3.81,0,5.52,1.3a4.18,4.18,0,0,1,1.71,3.52Z" transform="translate(0.02 0)"/><path id="path3037" class="cls-1" d="M1260.93,155.5l-6.22-6.28a25.11,25.11,0,0,1-5.23,3.81,13.55,13.55,0,0,1-6.44,1.4,12.18,12.18,0,0,1-9.29-4.13,14,14,0,0,1-2.64-4.44,15.51,15.51,0,0,1-1-5.39v-.13a14.9,14.9,0,0,1,1-5.36,14.12,14.12,0,0,1,2.67-4.41,12.11,12.11,0,0,1,4.09-3,12.3,12.3,0,0,1,5.17-1.08,13.64,13.64,0,0,1,6.06,1.33,23.7,23.7,0,0,1,5.3,3.68l6.21-7.16a26.6,26.6,0,0,0-3.29-2.8,21.21,21.21,0,0,0-3.87-2.15,23,23,0,0,0-4.67-1.4,28.45,28.45,0,0,0-5.68-.51,23.83,23.83,0,0,0-9.39,1.81,22.16,22.16,0,0,0-7.29,5,22.8,22.8,0,0,0-4.76,7.3,23.27,23.27,0,0,0-1.71,8.91v.13a23.42,23.42,0,0,0,1.71,8.94,22.14,22.14,0,0,0,4.76,7.27,22.54,22.54,0,0,0,7.23,4.85,23.14,23.14,0,0,0,9.07,1.78,28.6,28.6,0,0,0,5.84-.54,20.72,20.72,0,0,0,8.82-4.1,32.57,32.57,0,0,0,3.55-3.3Z" transform="translate(0.02 0)"/></g></g></g><path class="cls-1" d="M1477.57,111.09v4.24h.18a9.57,9.57,0,0,1,4.12-3.85,11.9,11.9,0,0,1,5.18-1.21,14.38,14.38,0,0,1,5.51.91,8.06,8.06,0,0,1,3.38,2.53,9.63,9.63,0,0,1,1.74,4,24.05,24.05,0,0,1,.5,5.15v18.73h-8.36v-17.2a10.63,10.63,0,0,0-1.18-5.62c-.78-1.24-2.18-1.86-4.18-1.86a6.06,6.06,0,0,0-5,2c-1.08,1.32-1.53,3.58-1.53,6.68v16h-8.36v-30.5Z" transform="translate(0.02 0)"/><path class="cls-1" d="M1509.66,134.23a8.61,8.61,0,0,0,9.78.56,5.26,5.26,0,0,0,2.24-2.68H1529q-1.77,5.47-5.42,7.83a15.88,15.88,0,0,1-8.83,2.35,17.31,17.31,0,0,1-6.48-1.15,13.47,13.47,0,0,1-4.89-3.26,14.85,14.85,0,0,1-3.09-5.07,18.35,18.35,0,0,1-1.09-6.48,17.64,17.64,0,0,1,1.12-6.35,14.75,14.75,0,0,1,8.1-8.49,15.8,15.8,0,0,1,6.33-1.23,14.45,14.45,0,0,1,6.77,1.5,13.57,13.57,0,0,1,4.74,4,16.46,16.46,0,0,1,2.68,5.77,21.8,21.8,0,0,1,.59,6.78h-22C1507.71,131,1508.41,133,1509.66,134.23Zm9.46-16a5.92,5.92,0,0,0-4.57-1.65,7.34,7.34,0,0,0-3.33.68,6.09,6.09,0,0,0-3.23,3.79,9.69,9.69,0,0,0-.39,2h13.61a9.76,9.76,0,0,0-2.09-4.84Z" transform="translate(0.02 0)"/><path class="cls-1" d="M1556.89,141.53l-5.41-20.44h-.11l-5.19,20.44h-8.7l-9.62-30.44h8.83l5.6,20.67h.12l5.07-20.67h8.13l5.18,20.61h.12l5.57-20.61h8.6l-9.6,30.45Z" transform="translate(0.02 0)"/><path class="cls-1" d="M1581.83,134a4.77,4.77,0,0,0,1.44,1.59,6.15,6.15,0,0,0,2,.91,9.6,9.6,0,0,0,2.39.3,8.27,8.27,0,0,0,1.85-.21,6.17,6.17,0,0,0,1.77-.65,4,4,0,0,0,1.33-1.17,3.15,3.15,0,0,0,.53-1.86c0-1.25-.84-2.2-2.51-2.83a51.65,51.65,0,0,0-7-1.88,32.44,32.44,0,0,1-3.57-1,11.7,11.7,0,0,1-3.09-1.47,7.26,7.26,0,0,1-2.18-2.3A6.48,6.48,0,0,1,1574,120a9.14,9.14,0,0,1,1.15-4.83,8.45,8.45,0,0,1,3-3,13.16,13.16,0,0,1,4.24-1.53,27,27,0,0,1,4.83-.44,25,25,0,0,1,4.8.47,12.63,12.63,0,0,1,4.15,1.59,9.65,9.65,0,0,1,3,3,9.87,9.87,0,0,1,1.44,4.69h-8a3.65,3.65,0,0,0-1.82-3.27,8.32,8.32,0,0,0-3.89-.86,13.08,13.08,0,0,0-1.53.09,5.17,5.17,0,0,0-1.5.38,3.06,3.06,0,0,0-1.15.86,2.26,2.26,0,0,0-.47,1.5,2.3,2.3,0,0,0,.82,1.83,6.37,6.37,0,0,0,2.15,1.14,28.2,28.2,0,0,0,3,.8c1.13.23,2.29.49,3.47.76a36.89,36.89,0,0,1,3.56,1,12,12,0,0,1,3.09,1.57,7.4,7.4,0,0,1,2.18,2.41,7.1,7.1,0,0,1,.83,3.56A9.26,9.26,0,0,1,1597,140a12.94,12.94,0,0,1-4.45,1.73,24.89,24.89,0,0,1-5.09.5,24.36,24.36,0,0,1-5.18-.53,13.81,13.81,0,0,1-4.51-1.76,9.67,9.67,0,0,1-4.62-8.37h8A4.6,4.6,0,0,0,1581.83,134Z" transform="translate(0.02 0)"/><path class="cls-1" d="M1468.26,169.65v4.12h-4.2v-4.12Z" transform="translate(0.02 0)"/><path class="cls-1" d="M1479.82,155.56a4.37,4.37,0,0,0-2.51.69,5.52,5.52,0,0,0-1.65,1.75,7.8,7.8,0,0,0-.9,2.38,13.1,13.1,0,0,0-.26,2.57,12.34,12.34,0,0,0,.26,2.5,7.67,7.67,0,0,0,.86,2.31,5,5,0,0,0,1.6,1.69,4.36,4.36,0,0,0,2.46.66,4.6,4.6,0,0,0,3.45-1.25,6,6,0,0,0,1.52-3.36h6a10.25,10.25,0,0,1-3.52,6.89,11.29,11.29,0,0,1-7.42,2.38,12.49,12.49,0,0,1-4.68-.86,10.48,10.48,0,0,1-3.63-2.39,11.24,11.24,0,0,1-2.33-3.67,12.66,12.66,0,0,1-.83-4.68,15.4,15.4,0,0,1,.77-4.9,10.8,10.8,0,0,1,2.26-3.91,10.31,10.31,0,0,1,3.65-2.57,12.37,12.37,0,0,1,4.92-.93,14.65,14.65,0,0,1,3.89.53,10.41,10.41,0,0,1,3.34,1.6,8.64,8.64,0,0,1,2.39,2.68,8.48,8.48,0,0,1,1.06,3.81h-6a4.19,4.19,0,0,0-4.43-3.94Z" transform="translate(0.02 0)"/><path class="cls-1" d="M1491.48,157.92a10.37,10.37,0,0,1,6.06-6.2,14,14,0,0,1,9.69,0,10.34,10.34,0,0,1,6.09,6.2,15.06,15.06,0,0,1,0,9.86,10.81,10.81,0,0,1-2.37,3.76,10.25,10.25,0,0,1-3.72,2.39,14.39,14.39,0,0,1-9.69,0,10.26,10.26,0,0,1-3.69-2.39,10.81,10.81,0,0,1-2.37-3.76,15.06,15.06,0,0,1,0-9.86Zm5.67,7.6a7.05,7.05,0,0,0,.9,2.33,4.83,4.83,0,0,0,1.69,1.64,5.17,5.17,0,0,0,2.64.62,5.24,5.24,0,0,0,2.66-.62,4.88,4.88,0,0,0,1.71-1.64,7.05,7.05,0,0,0,.9-2.33,12.56,12.56,0,0,0,.26-2.66,13.38,13.38,0,0,0-.26-2.68,6.69,6.69,0,0,0-.9-2.33,4.86,4.86,0,0,0-4.37-2.29,5.09,5.09,0,0,0-2.64.64,5.22,5.22,0,0,0-1.69,1.65,6.5,6.5,0,0,0-.9,2.33,13.38,13.38,0,0,0-.26,2.68,13.23,13.23,0,0,0,.24,2.66Z" transform="translate(0.02 0)"/><path class="cls-1" d="M1521.38,151.48v3.07h.09a8.79,8.79,0,0,1,3-2.72,8.08,8.08,0,0,1,4-1,9,9,0,0,1,3.93.84,5.55,5.55,0,0,1,2.7,2.94,9.74,9.74,0,0,1,2.75-2.64,7.25,7.25,0,0,1,4.1-1.14,12.16,12.16,0,0,1,3.34.44,6.82,6.82,0,0,1,2.64,1.41,6.63,6.63,0,0,1,1.72,2.52,10.48,10.48,0,0,1,.61,3.76v15.21H1544V161.32a16.48,16.48,0,0,0-.09-2.15,4.71,4.71,0,0,0-.48-1.76,2.92,2.92,0,0,0-1.17-1.19,4.26,4.26,0,0,0-2.08-.44,4.07,4.07,0,0,0-2.13.51,3.68,3.68,0,0,0-1.28,1.32,5.19,5.19,0,0,0-.61,1.84,13.28,13.28,0,0,0-.16,2.09V174.2h-6.24V159.45a5.68,5.68,0,0,0-.37-1.82,2.83,2.83,0,0,0-1.1-1.34,4.17,4.17,0,0,0-2.27-.51,5.13,5.13,0,0,0-1.16.2,3.77,3.77,0,0,0-1.41.75,4.33,4.33,0,0,0-1.16,1.58,6.43,6.43,0,0,0-.48,2.7V174.2h-6.35V151.48Z" transform="translate(0.02 0)"/><path class="cls-1" d="M1556,170.09v4.08h-4.16v-4.08Z" transform="translate(0.02 0)"/><path class="cls-1" d="M1558.81,154.82a7.51,7.51,0,0,1,2.46-2.33,10.62,10.62,0,0,1,3.37-1.25,18.86,18.86,0,0,1,3.75-.38,25.19,25.19,0,0,1,3.47.24,10.9,10.9,0,0,1,3.21,1,6.23,6.23,0,0,1,2.37,2,5.44,5.44,0,0,1,.93,3.32v11.82a26.39,26.39,0,0,0,.17,2.95,5.37,5.37,0,0,0,.62,2.11h-6.33a9.52,9.52,0,0,1-.29-1.08,10.4,10.4,0,0,1-.15-1.12,8.3,8.3,0,0,1-3.51,2.15,14.17,14.17,0,0,1-4.14.62,11.29,11.29,0,0,1-3-.4,6.94,6.94,0,0,1-2.46-1.23,5.85,5.85,0,0,1-1.65-2.11,7.21,7.21,0,0,1-.59-3,6.65,6.65,0,0,1,.68-3.19,5.83,5.83,0,0,1,1.76-2,8,8,0,0,1,2.46-1.12c.92-.24,1.85-.44,2.79-.59s1.86-.26,2.77-.35a16.51,16.51,0,0,0,2.42-.4,4.12,4.12,0,0,0,1.67-.77,1.68,1.68,0,0,0,.57-1.47,3.29,3.29,0,0,0-.33-1.6,2.43,2.43,0,0,0-.88-.92,3.42,3.42,0,0,0-1.28-.44,9.1,9.1,0,0,0-1.56-.11,4.74,4.74,0,0,0-2.9.79,3.55,3.55,0,0,0-1.23,2.63h-6.24A7.21,7.21,0,0,1,1558.81,154.82Zm12.33,8.81a9.62,9.62,0,0,1-1.28.33c-.45.09-.93.16-1.42.22s-1,.13-1.5.22a9.3,9.3,0,0,0-1.38.35,4,4,0,0,0-1.19.59,2.74,2.74,0,0,0-.81.95,3,3,0,0,0-.31,1.45,2.82,2.82,0,0,0,.31,1.4,2.32,2.32,0,0,0,.83.9,3.4,3.4,0,0,0,1.23.46,7.83,7.83,0,0,0,1.45.14,5.57,5.57,0,0,0,2.86-.62,4.12,4.12,0,0,0,1.49-1.47,4.68,4.68,0,0,0,.6-1.74,13,13,0,0,0,.11-1.4v-2.32a3.08,3.08,0,0,1-1,.54Z" transform="translate(0.02 0)"/><path class="cls-1" d="M1595.72,174.2V171h-.13a7.07,7.07,0,0,1-3.07,2.86,9.24,9.24,0,0,1-3.87.88,10.88,10.88,0,0,1-4.11-.66,5.88,5.88,0,0,1-2.53-1.87,7.4,7.4,0,0,1-1.29-2.94,18.48,18.48,0,0,1-.38-3.85v-14h6.24v12.83a8,8,0,0,0,.88,4.2,3.42,3.42,0,0,0,3.12,1.38,4.31,4.31,0,0,0,3.69-1.52c.76-1,1.15-2.67,1.15-5V151.48h6.24V174.2Z" transform="translate(0.02 0)"/><rect class="cls-1" x="1409.69" y="102.62" width="12.88" height="13.51" rx="1.91"/><rect class="cls-1" x="1409.69" y="162.01" width="12.88" height="13.51" rx="1.91"/><rect class="cls-1" x="1379.68" y="135.07" width="13.51" height="12.88" rx="1.91"/><rect class="cls-1" x="1439.08" y="135.07" width="13.51" height="12.88" rx="1.91"/><rect class="cls-1" x="1388.36" y="154.85" width="13.51" height="12.88" rx="1.91" transform="translate(294.59 1033.74) rotate(-45)"/><rect class="cls-1" x="1430.35" y="112.85" width="13.51" height="12.88" rx="1.91" transform="translate(336.59 1051.13) rotate(-45)"/><rect class="cls-1" x="1430.67" y="154.53" width="12.88" height="13.51" rx="1.91" transform="translate(306.9 1063.43) rotate(-45)"/><rect class="cls-1" x="1388.67" y="112.54" width="12.88" height="13.51" rx="1.91" transform="translate(324.29 1021.43) rotate(-45)"/><polyline class="cls-1" points="981.69 13.39 985.24 10.62 988.35 13.61 984.8 16.16 981.69 13.39"/></svg>